<svg id="Layer_1" xmlns="http://www.w3.org/2000/svg" viewBox="0 0 141.73 141.35"><defs><style>.cls-1{fill:#fff;}.cls-2{fill:#3c3c43;}</style></defs><rect class="cls-2" width="141.73" height="141.73"/><polyline class="cls-1" points="116.22 77.7 107.66 77.7 107.66 41.42 116.22 41.42 116.22 77.7"/><polyline class="cls-1" points="48.61 51.7 43.71 77.71 37.72 77.7 32.8 51.7 32.8 77.7 25.51 77.7 25.51 41.42 36.42 41.41 40.71 64.11 44.99 41.42 55.89 41.42 55.89 77.71 48.61 77.71 48.61 51.7"/><path class="cls-1" d="m82.36,68.63c0,6.27-5.11,9.9-11.38,9.9s-11.38-3.64-11.38-9.91l-.03-27.21h8.56l.02,27.06c0,1.55,1.28,2.81,2.83,2.81s2.83-1.26,2.83-2.81l.02-27.06h8.56l-.03,27.22"/><path class="cls-1" d="m103.96,69.76c0,5.48-4.46,8.81-9.93,8.81s-9.92-3.33-9.92-8.81c-.02-1.37-.01-3.38-.01-5.3h7.61s0,5.3,0,5.3c0,1.02.83,1.85,1.85,1.85s1.86-.83,1.86-1.85v-28.35h8.57l-.02,28.34"/><path class="cls-1" d="m48.69,95.06h1.65v-2.38h-1.89v-1.75h2.51v-2.38h-2.51v-1.87h1.68v-2.47h-10.81c.2-.28.38-.55.54-.82l-2.55-1.19c-.67,1.01-1.52,2.05-2.52,3.06-.51.51-1.04.98-1.56,1.41l2.25,1.54c.25-.2.51-.42.76-.64v.97h-2.49v2.38h2.49v1.75h-1.73v2.38h1.69c-.62,1.21-1.64,2.62-2.4,3.3l2.18,1.66c1.07-1.02,2.07-2.43,2.83-4.1l-1.68-.86h10.89l-1.75,1.03c.85,1.14,1.85,2.58,2.43,3.78l2.4-1.21c-.51-1.08-1.49-2.6-2.4-3.59m-2.89-2.38h-.67v-1.75h.67v1.75Zm-3.81-1.75h.7v1.75h-.7v-1.75Zm.7-2.38h-.7v-1.87h.7v1.87Zm3.11,0h-.67v-1.87h.67v1.87Zm-6.93-1.87h.69v1.87h-.69v-1.87Zm0,4.25h.69v1.75h-.69v-1.75Z"/><path class="cls-1" d="m69.9,84.52h-8.06v.41l-1.7-1.57c-1.36.81-3.46,1.48-5.86,1.78-.03,0-.05,0-.08,0v13.95h2.84v-.91h4.35v-2.79h-4.35v-3.24h4.35v-2.64h-4.35v-2.28c1.89-.37,3.55-.92,4.79-1.57v14.36h2.88v-12.83h2.3v8.21h-1.88l.96,2.95h1.42c1.31,0,2.38-1.01,2.38-2.25v-11.59"/><path class="cls-1" d="m84.72,95.86c.23-.21.46-.43.69-.66.78-.77,1.45-1.57,1.98-2.31l-.78-.76v-7.51h-4.77v-2.22h-3.1v2.22h-4.88v12.22s0,0-.01,0c-.6.13-1.18.25-1.76.36l.59,2.92c.3-.07.61-.14.92-.21,2.63-.63,5.03-1.38,6.92-2.15v-1.81c1.74,1.85,4.2,3.45,6.96,4.37l1.51-2.53c-1.66-.54-3.09-1.19-4.26-1.93m-1.2-5.64h-6.68v-.63h6.68v.63Zm.46,2.48c-.22.28-.45.56-.7.84-.2.23-.4.44-.61.65-.44-.47-.8-.97-1.08-1.5h2.38Zm-7.13-5.71h6.68v.65h-6.68v-.65Zm0,9.13v-3.42h1.46c.35.84.87,1.69,1.54,2.5-.92.32-1.92.63-3,.92Z"/><path class="cls-1" d="m103.99,83.69h-10.02v7.12h10.02v-7.12m-7.25,2.35h4.49v2.33h-4.49v-2.33Z"/><path class="cls-1" d="m90.79,91.66v8.37h2.76v-.6h2.19v.6h2.76v-8.37h-7.71m4.95,5.41h-2.19v-2.94h2.19v2.94Z"/><path class="cls-1" d="m107.18,91.66h-7.83v8.37h2.82v-.6h2.19v.6h2.82v-8.37h0m-2.82,5.41h-2.19v-2.94h2.19v2.94Z"/></svg>